<svg width="336" height="322" viewBox="0 0 336 322" fill="none" xmlns="http://www.w3.org/2000/svg">
<path fill-rule="evenodd" clip-rule="evenodd" d="M-333.943 540.061C-365.367 504.701 -408.152 452.646 -387.004 410.348C-360.81 357.957 -265.158 381.953 -231.077 334.321C-203.65 295.988 -252.584 237.372 -232.67 194.645C-212.722 151.844 -169.584 120.205 -124.605 105.869C-78.7886 91.2664 -21.0876 86.2588 17.5818 114.883C59.2774 145.747 37.6912 223.815 78.3161 256.077C121.526 290.392 203.541 247.073 238.155 290.05C268.627 327.884 230.712 385.351 220.718 432.883C211.974 474.474 208.556 519.106 182.879 552.958C158.062 585.677 116.891 599.743 80.1898 618.153C47.9062 634.347 15.8023 653.86 -20.3042 654.879C-54.9812 655.858 -84.8034 632.924 -118.266 623.753C-151.521 614.639 -185.64 613.23 -217.788 600.755C-259.029 584.752 -304.549 573.136 -333.943 540.061Z" fill="#003300"/>
</svg>
